<svg width="141" height="145" viewBox="0 0 141 145" fill="none" xmlns="http://www.w3.org/2000/svg">
<path fill-rule="evenodd" clip-rule="evenodd" d="M55.8 33.8907C55.8 34.6197 56.509 35.2237 56.903 34.8307C57.04 34.6927 56.848 34.2767 56.476 33.9047C55.853 33.2807 55.8 33.2797 55.8 33.8907ZM82.677 45.0297C82.755 45.2667 82.991 45.4597 83.2 45.4597C83.409 45.4597 83.645 45.2667 83.723 45.0297C83.802 44.7927 83.567 44.5997 83.2 44.5997C82.833 44.5997 82.598 44.7927 82.677 45.0297ZM17.306 61.7047L1.81195 61.8087L1.16596 62.7957C0.348957 64.0427 0.483956 70.4977 1.34896 71.5387C1.83196 72.1197 3.06496 72.1997 11.569 72.1997C18.558 72.1997 21.373 72.3327 21.72 72.6797C22.083 73.0427 22.2 79.0477 22.2 97.2567V121.355L23.089 121.977C24.466 122.942 30.209 122.845 31.456 121.836L32.4 121.071L32.6 96.7357L32.8 72.3997L42.6 72.2837C54.026 72.1497 53.241 72.4927 53.503 67.5227C53.835 61.2217 55.247 61.4477 17.306 61.7047ZM89.796 66.4037C89.385 66.8997 89.445 66.9997 90.151 66.9997C90.618 66.9997 91 66.8307 91 66.6237C91 65.9307 90.296 65.8017 89.796 66.4037ZM57.4 80.9757C57.4 81.4287 57.58 81.7997 57.8 81.7997C58.02 81.7997 58.2 81.5407 58.2 81.2237C58.2 80.9067 58.02 80.5357 57.8 80.3997C57.58 80.2637 57.4 80.5227 57.4 80.9757ZM94.5 94.8757C93.663 95.0947 93.561 95.7997 94.367 95.7997C95.235 95.7997 96.2 95.3557 96.2 94.9567C96.2 94.5867 95.699 94.5627 94.5 94.8757ZM81.585 132.695C81.054 134.077 81.594 144 82.2 144C82.691 144 82.8209 143.183 82.9129 139.5C83.0429 134.314 83.245 134.07 84.57 137.5C87.11 144.073 88.3069 144.288 90.6069 138.582C92.2749 134.444 92.6 134.569 92.6 139.351C92.6 142.361 92.742 143.42 93.195 143.796C94.116 144.56 94.237 143.766 94.112 137.78L94 132.4H92.662C91.359 132.4 91.29 132.486 89.961 135.782C87.928 140.82 87.829 140.821 85.776 135.8C84.366 132.349 82.304 130.822 81.585 132.695ZM98.2 133C98.2 133.792 98.383 133.822 102.5 133.714C106.005 133.621 106.8 133.489 106.8 133C106.8 132.511 106.005 132.379 102.5 132.286C98.383 132.178 98.2 132.208 98.2 133ZM111.08 132.68C110.3 133.46 110.427 142.77 111.229 143.571C112.038 144.381 116.106 144.417 117.986 143.632C121.242 142.271 121.704 134.261 118.622 132.612C117.537 132.031 111.676 132.084 111.08 132.68ZM124.08 132.453C123.545 132.988 123.758 143.267 124.313 143.728C125.555 144.759 125.826 143.647 125.712 137.974C125.601 132.468 125.251 131.282 124.08 132.453ZM134.126 132.9C133.244 133.932 129.411 143.759 129.797 143.998C130.388 144.363 131.453 143.713 131.812 142.769C132.09 142.037 132.516 141.822 133.881 141.724C135.851 141.582 136.476 140.124 134.676 139.869C133.366 139.683 133.253 139.01 134.17 136.87C135.278 134.285 135.484 134.433 137.392 139.181C139.126 143.495 139.914 144.646 140.638 143.922C141.03 143.53 137.481 133.87 136.515 132.7C135.928 131.989 134.825 132.081 134.126 132.9ZM118.002 134.352C119.074 135.136 119.369 139.777 118.437 141.199C117.849 142.096 117.513 142.2 115.191 142.2H112.6V138V133.8H114.924C116.267 133.8 117.565 134.033 118.002 134.352ZM98.7 137.258C97.688 137.68 98.0709 141.939 99.2169 143.016C100.81 144.513 106.8 144.5 106.8 143C106.8 142.033 106.7 141.996 103.818 141.881C100.563 141.751 99.8 141.388 99.8 139.969C99.8 138.93 100.617 138.68 104.6 138.5C106.245 138.425 106.8 138.249 106.8 137.8C106.8 137.195 99.948 136.737 98.7 137.258Z" fill="#301E55"/>
<path fill-rule="evenodd" clip-rule="evenodd" d="M74.3342 61.772C71.9822 62.157 70.9932 63.011 72.2642 63.561C73.1442 63.942 73.1152 63.974 71.7642 64.103C70.3422 64.239 70.3262 64.262 69.8642 66.766C69.0082 71.415 69.3512 76.696 70.3992 75C70.5352 74.78 71.0062 74.6 71.4462 74.6C71.8862 74.6 72.1352 74.78 71.9992 75C71.8632 75.22 71.4802 75.4 71.1472 75.4C69.4872 75.4 68.3332 84.436 69.8992 85.167C70.2992 85.353 70.2992 85.447 69.8992 85.633C68.7782 86.156 69.3522 96.002 70.5612 97C70.6942 97.11 71.3072 97.875 71.9222 98.7C72.5462 99.538 73.3842 100.2 73.8192 100.2C74.9352 100.2 74.7832 100.867 73.5992 101.164C73.0492 101.302 72.5992 101.682 72.5992 102.008C72.5992 102.333 72.4192 102.6 72.1992 102.6C71.9792 102.6 71.7992 102.87 71.7992 103.2C71.7992 103.53 71.6192 103.8 71.3992 103.8C71.1792 103.8 70.9992 104.07 70.9992 104.4C70.9992 104.73 70.8642 105.001 70.6992 105.003C69.3022 105.018 68.7012 119.826 70.0222 121.711C70.8512 122.894 78.5022 123.08 79.4502 121.939C80.4142 120.779 80.4832 99.404 79.5232 99.387C78.8362 99.375 78.8352 99.347 79.4992 98.843C80.4702 98.106 80.5622 89.8 79.5992 89.8C79.2692 89.8 78.9992 89.62 78.9992 89.4C78.9992 89.18 79.2692 89 79.5992 89C80.1082 89 80.1992 87.991 80.1992 82.32C80.1992 74.137 80.1732 74.124 84.2292 84.274C86.7012 90.462 87.4772 92.018 88.2462 92.332C89.0722 92.67 89.1022 92.745 88.4702 92.896C87.9722 93.015 87.8262 93.281 88.0112 93.735C88.1592 94.101 88.4582 94.889 88.6752 95.488C89.0462 96.513 89.1742 96.561 90.8962 96.325C92.2292 96.142 92.6472 96.199 92.4382 96.537C92.2812 96.792 91.6332 97 90.9992 97C89.4402 97 89.3502 97.302 90.2802 99.4C91.2192 101.514 91.7942 102.894 92.1992 104C92.3602 104.44 92.6792 105.25 92.9082 105.8C93.1372 106.35 93.6252 107.61 93.9922 108.6C96.2732 114.752 99.3542 116.498 106.378 115.62C110.227 115.139 110.958 114.099 115.565 102.568C117.712 97.196 119.741 92.17 120.074 91.4C120.821 89.677 121.398 88.281 121.853 87.1C122.488 85.449 122.913 84.415 123.701 82.6C124.13 81.61 124.912 79.675 125.438 78.3C125.964 76.925 126.531 75.8 126.697 75.8C126.863 75.8 126.999 85.93 126.999 98.311C126.999 125.14 126.44 122.6 132.342 122.6C134.995 122.6 136.608 122.431 136.919 122.12C137.705 121.334 137.6 66.78 136.809 64.886C135.561 61.898 132.19 60.973 124.792 61.589C120.231 61.969 119.732 62.433 117.233 68.624C116.65 70.068 116.062 71.958 115.925 72.824C115.789 73.691 115.165 75.152 114.538 76.072C113.912 76.992 113.399 77.895 113.399 78.079C113.399 79.08 104.194 101.217 103.74 101.309C103.442 101.37 102.962 100.83 102.673 100.109C102.383 99.389 101.978 98.487 101.773 98.105C101.567 97.723 101.399 97.22 101.399 96.986C101.399 96.752 101.039 95.816 100.599 94.906C100.159 93.995 99.7992 92.994 99.7992 92.682C99.7992 92.362 99.5572 92.207 99.2442 92.327C98.8572 92.476 98.7492 92.311 98.8872 91.783C98.9962 91.367 97.8512 87.923 96.3422 84.131L93.5992 77.235L93.3802 79.218C93.1812 81.014 93.1302 81.096 92.8352 80.095C92.6562 79.487 92.5942 78.414 92.6982 77.71C92.8112 76.935 92.6712 76.215 92.3422 75.886C92.0432 75.587 91.7962 74.771 91.7932 74.071C91.7872 72.798 90.9882 70.056 90.4732 69.541C90.3222 69.39 90.1992 68.922 90.1992 68.502C90.1992 67.699 88.1162 67.798 87.2192 68.642C86.7082 69.124 85.7992 69.097 85.7992 68.6C85.7992 68.38 86.0332 68.2 86.3192 68.2C87.0552 68.2 88.9922 67.259 88.9962 66.9C88.9982 66.735 88.2902 66.6 87.4232 66.6C85.1352 66.6 85.0232 65.867 87.2892 65.722L89.1992 65.6L87.3472 63.761C85.0392 61.47 80.4622 60.771 74.3342 61.772ZM78.1992 64.6C78.6292 64.878 78.2112 64.989 76.7232 64.994C75.5812 64.997 74.5352 64.82 74.3992 64.6C74.0772 64.079 77.3932 64.079 78.1992 64.6ZM83.7992 65.4C84.2292 65.678 83.8112 65.789 82.3232 65.794C81.1812 65.797 80.1352 65.62 79.9992 65.4C79.6772 64.879 82.9932 64.879 83.7992 65.4ZM85.1992 69.4C85.0632 69.62 84.6922 69.8 84.3752 69.8C84.0582 69.8 83.7992 69.62 83.7992 69.4C83.7992 69.18 84.1702 69 84.6232 69C85.0762 69 85.3352 69.18 85.1992 69.4ZM83.1992 70.2C83.0632 70.42 82.6822 70.6 82.3522 70.6C82.0222 70.6 81.8632 70.42 81.9992 70.2C82.1352 69.98 82.5162 69.8 82.8462 69.8C83.1762 69.8 83.3352 69.98 83.1992 70.2ZM81.3992 71C81.3992 71.22 81.0502 71.4 80.6232 71.4C80.1962 71.4 79.7352 71.58 79.5992 71.8C79.4632 72.02 79.0922 72.2 78.7752 72.2C78.4582 72.2 78.1992 72.02 78.1992 71.8C78.1992 71.58 78.5482 71.4 78.9752 71.4C79.4022 71.4 79.8632 71.22 79.9992 71C80.1352 70.78 80.5062 70.6 80.8232 70.6C81.1402 70.6 81.3992 70.78 81.3992 71ZM77.5992 72.6C77.4632 72.82 77.0922 73 76.7752 73C76.4582 73 76.1992 72.82 76.1992 72.6C76.1992 72.38 76.5702 72.2 77.0232 72.2C77.4762 72.2 77.7352 72.38 77.5992 72.6ZM75.7992 73.4C75.7992 73.62 75.4392 73.8 74.9992 73.8C74.5592 73.8 74.1992 73.62 74.1992 73.4C74.1992 73.18 74.5592 73 74.9992 73C75.4392 73 75.7992 73.18 75.7992 73.4ZM73.7992 74.2C73.7992 74.42 73.5292 74.6 73.1992 74.6C72.8692 74.6 72.5992 74.42 72.5992 74.2C72.5992 73.98 72.8692 73.8 73.1992 73.8C73.5292 73.8 73.7992 73.98 73.7992 74.2ZM94.1992 83.647C94.1992 84.479 94.0372 84.947 93.7992 84.8C93.5792 84.664 93.3992 83.923 93.3992 83.153C93.3992 82.321 93.5612 81.853 93.7992 82C94.0192 82.136 94.1992 82.877 94.1992 83.647ZM72.1992 86.2C72.1992 86.42 71.9402 86.6 71.6232 86.6C71.3062 86.6 70.9352 86.42 70.7992 86.2C70.6632 85.98 70.9222 85.8 71.3752 85.8C71.8282 85.8 72.1992 85.98 72.1992 86.2ZM74.1992 87C74.1992 87.22 73.9402 87.4 73.6232 87.4C73.3062 87.4 72.9352 87.22 72.7992 87C72.6632 86.78 72.9222 86.6 73.3752 86.6C73.8282 86.6 74.1992 86.78 74.1992 87ZM94.9992 88.447C94.9992 89.279 94.8372 89.747 94.5992 89.6C94.3792 89.464 94.1992 88.723 94.1992 87.953C94.1992 87.121 94.3612 86.653 94.5992 86.8C94.8192 86.936 94.9992 87.677 94.9992 88.447ZM76.3992 87.8C76.5352 88.02 76.2862 88.2 75.8462 88.2C75.4062 88.2 74.9352 88.02 74.7992 87.8C74.6632 87.58 74.9122 87.4 75.3522 87.4C75.7922 87.4 76.2632 87.58 76.3992 87.8ZM78.3992 88.6C78.5352 88.82 78.2762 89 77.8232 89C77.3702 89 76.9992 88.82 76.9992 88.6C76.9992 88.38 77.2582 88.2 77.5752 88.2C77.8922 88.2 78.2632 88.38 78.3992 88.6ZM95.7932 93.1C95.8002 94.827 96.0142 94.935 97.0552 93.736C97.4672 93.261 97.9192 92.987 98.0602 93.128C98.2012 93.269 97.6252 94.018 96.7802 94.792C95.0432 96.383 93.3992 96.679 93.3992 95.4C93.3992 94.867 93.6662 94.6 94.1992 94.6C94.8972 94.6 95.0002 94.331 95.0052 92.5C95.0102 90.997 95.1212 90.57 95.3992 91C95.6122 91.33 95.7902 92.275 95.7932 93.1ZM90.9992 93.4C90.9992 93.62 90.6392 93.8 90.1992 93.8C89.7592 93.8 89.3992 93.62 89.3992 93.4C89.3992 93.18 89.7592 93 90.1992 93C90.6392 93 90.9992 93.18 90.9992 93.4ZM92.9992 94.2C92.9992 94.42 92.7402 94.6 92.4232 94.6C92.1062 94.6 91.7352 94.42 91.5992 94.2C91.4632 93.98 91.7222 93.8 92.1752 93.8C92.6282 93.8 92.9992 93.98 92.9992 94.2ZM69.3992 101C69.3992 105.147 69.6652 105.773 70.6312 103.9C70.9442 103.295 71.5142 102.451 71.8992 102.025C72.7982 101.029 72.7822 100.783 71.7122 99.262C69.5162 96.138 69.3992 96.226 69.3992 101ZM78.1992 99.8C78.1992 100.02 77.5582 100.2 76.7752 100.2C75.9282 100.2 75.4522 100.038 75.5992 99.8C75.7352 99.58 76.3762 99.4 77.0232 99.4C77.6702 99.4 78.1992 99.58 78.1992 99.8ZM20.6992 132.065C20.4242 132.176 20.1992 132.608 20.1992 133.026C20.1992 133.796 20.8652 134.077 23.1992 134.29L24.3992 134.4L24.5122 139.326C24.6222 144.157 24.6412 144.25 25.5122 144.126C26.3592 144.006 26.4082 143.782 26.5992 139.2L26.7992 134.4L27.9992 134.29C30.3202 134.078 30.9992 133.795 30.9992 133.039C30.9992 131.946 22.8932 131.18 20.6992 132.065ZM34.4662 132.067C33.0482 133.485 34.5532 134.2 38.9552 134.2C43.0202 134.2 44.6582 133.509 43.2232 132.4C42.4202 131.78 35.0342 131.499 34.4662 132.067ZM49.3412 132.082C46.6032 132.503 45.4422 140.691 47.7692 143.168C48.9582 144.434 55.6032 144.776 56.0562 143.595C56.5382 142.339 55.4292 141.8 52.3642 141.8C48.9372 141.8 48.5992 141.482 48.5992 138.252C48.5992 134.55 48.9222 134.2 52.3402 134.2C54.4842 134.2 55.4382 134.034 55.7992 133.6C57.0352 132.111 53.9192 131.379 49.3412 132.082ZM59.8882 132.137C58.8392 132.802 59.4092 143.973 60.4992 144.128C61.3392 144.247 61.3992 144.109 61.3992 142.042C61.3992 139.401 62.0032 138.891 64.9132 139.079L66.7992 139.2L66.9062 140.8C67.0972 143.666 67.3322 144.2 68.4072 144.2H69.3992V138.233C69.3992 132.02 69.2432 131.474 67.6992 132.268C67.1622 132.544 66.9992 133.136 66.9992 134.814V137H64.4072C61.5312 137 61.5352 137.004 61.3062 133.631C61.1962 132.014 60.7772 131.573 59.8882 132.137ZM34.4422 137.633C33.7102 139.541 34.3842 142.627 35.7642 143.687C36.9752 144.617 43.2962 144.353 43.6122 143.36C44.0282 142.048 43.2062 141.616 39.8802 141.4C36.9142 141.207 36.7992 141.163 36.7992 140.2C36.7992 139.233 36.9062 139.193 39.9992 139C42.9422 138.816 43.2092 138.728 43.3272 137.9C43.4952 136.718 34.8922 136.459 34.4422 137.633Z" fill="#E3A52F"/>
<path fill-rule="evenodd" clip-rule="evenodd" d="M74.4358 0.300007C74.2118 0.462007 73.5168 1.22401 72.8908 1.99401C72.2658 2.76401 71.0088 4.20701 70.0978 5.20201C69.1868 6.19601 67.4568 8.176 66.2528 9.602C65.0498 11.027 63.7798 12.464 63.4308 12.794C63.0828 13.124 62.5148 13.806 62.1708 14.31C61.8258 14.814 60.7558 16.077 59.7928 17.118C58.8298 18.158 57.0518 20.174 55.8418 21.598C54.6318 23.021 52.8778 24.998 51.9438 25.99C51.0098 26.982 50.2448 27.929 50.2438 28.094C50.2428 28.259 49.9548 28.394 49.6038 28.394C49.2528 28.394 48.4878 28.726 47.9038 29.131C47.3198 29.537 46.2568 30.121 45.5418 30.429C44.8268 30.737 44.2418 31.125 44.2418 31.292C44.2418 31.458 43.9268 31.598 43.5418 31.603C43.1568 31.608 42.3918 31.964 41.8418 32.394C41.2918 32.824 40.6408 33.18 40.3958 33.185C39.2558 33.208 37.8418 34.877 37.8418 36.199C37.8418 36.94 37.6618 37.658 37.4418 37.794C37.2218 37.93 37.0418 38.83 37.0418 39.794C37.0418 40.758 36.8618 41.658 36.6418 41.794C36.4218 41.93 36.2418 42.74 36.2418 43.594C36.2418 44.448 36.0618 45.258 35.8418 45.394C35.6218 45.53 35.4418 46.405 35.4418 47.338C35.4418 48.271 35.2798 49.205 35.0828 49.414C34.8858 49.623 34.6108 50.604 34.4728 51.594C33.8558 56.031 33.7388 56.616 33.4008 56.974C33.2038 57.183 33.0418 58.063 33.0418 58.93C33.0418 61.627 33.4188 61.567 16.3908 61.581C-1.64323 61.596 0.0417706 61.013 0.0417706 67.243C0.0417706 73.38 -0.751225 72.964 11.2558 73.125L21.0418 73.256V97.136C21.0418 122.615 21.0548 122.794 22.9538 122.794C23.4798 122.794 23.4328 122.663 22.7308 122.171L21.8418 121.549V97.451C21.8418 79.242 21.7248 73.237 21.3618 72.874C21.0148 72.527 18.1998 72.394 11.2108 72.394C-0.249223 72.394 0.503778 72.737 0.305778 67.422C0.191778 64.338 0.284784 63.631 0.905784 62.876L1.64178 61.981L26.8218 61.982C56.3258 61.983 53.2978 61.37 53.1178 67.309C52.9538 72.742 53.7938 72.342 42.2418 72.478L32.4418 72.594L32.2418 96.93L32.0418 121.265L31.0418 122.077C30.1818 122.775 30.1528 122.867 30.8318 122.738C32.5918 122.402 32.6298 121.866 32.6358 97.07C32.6398 82.552 32.7848 73.635 33.0168 73.778C33.2228 73.906 33.6398 74.501 33.9428 75.102C34.7258 76.652 35.6048 78.16 35.8608 78.394C35.9808 78.504 36.5668 79.584 37.1628 80.794C38.3428 83.192 39.5158 85.279 39.8608 85.594C39.9808 85.704 40.5698 86.784 41.1698 87.994C41.7688 89.204 42.6768 90.914 43.1868 91.794C43.6968 92.674 44.7278 94.564 45.4778 95.994C46.2278 97.424 46.9318 98.684 47.0418 98.794C47.2668 99.019 47.9348 100.222 49.9298 103.994C51.6768 107.296 52.3858 108.543 52.6608 108.794C52.7808 108.904 53.3668 109.984 53.9628 111.194C55.0938 113.492 56.2998 115.652 56.6428 115.994C56.7528 116.104 57.1068 116.734 57.4278 117.394C59.0268 120.674 61.0418 121.55 61.0418 118.965C61.0418 118.688 61.1928 118.401 61.3778 118.327C61.8388 118.144 69.8418 106.114 69.8418 105.604C69.8418 105.378 70.0218 105.194 70.2418 105.194C70.4618 105.194 70.6418 104.924 70.6418 104.594C70.6418 104.264 70.8218 103.994 71.0418 103.994C71.2618 103.994 71.4418 103.724 71.4418 103.394C71.4418 103.064 71.6218 102.794 71.8418 102.794C72.0618 102.794 72.2418 102.527 72.2418 102.202C72.2418 101.876 72.6918 101.496 73.2418 101.358C73.7918 101.22 74.2418 100.947 74.2418 100.751C74.2418 100.207 73.1358 100.326 72.9068 100.894C72.7528 101.277 72.6978 101.27 72.6738 100.867C72.6438 100.372 71.0488 98.036 69.9418 96.865C69.6668 96.575 69.4418 96.197 69.4418 96.027C69.4418 95.856 69.0618 95.284 68.5968 94.755C68.1318 94.227 67.2768 93.164 66.6968 92.394C66.1168 91.624 65.4138 90.753 65.1358 90.459C64.8578 90.165 64.1378 89.265 63.5358 88.459C62.9338 87.653 62.0288 86.544 61.5238 85.994C60.2048 84.558 58.9088 82.394 59.1958 82.106C59.3308 81.971 59.4418 82.071 59.4418 82.327C59.4418 82.584 59.8038 82.794 60.2468 82.794C60.6898 82.794 61.3648 82.953 61.7468 83.147C62.1288 83.342 62.9818 83.723 63.6418 83.994C64.3018 84.265 65.1548 84.646 65.5368 84.841C65.9188 85.035 66.5828 85.194 67.0128 85.194C67.4428 85.194 67.9058 85.374 68.0418 85.594C68.1778 85.814 68.6388 85.994 69.0658 85.994C69.4928 85.994 69.8418 85.814 69.8418 85.594C69.8418 85.374 69.5698 85.194 69.2368 85.194C68.9038 85.194 68.3188 85.035 67.9368 84.841C67.5548 84.646 66.7018 84.265 66.0418 83.994C65.3818 83.723 64.5288 83.342 64.1468 83.147C63.7648 82.953 63.1778 82.794 62.8418 82.794C62.5058 82.794 61.8288 82.586 61.3368 82.332C60.8448 82.078 60.1828 81.75 59.8658 81.603C58.8458 81.132 59.0088 80.603 60.3408 80.058C61.0568 79.766 62.0918 79.338 62.6418 79.107C63.1918 78.876 64.0018 78.557 64.4418 78.397C64.8818 78.238 66.0238 77.722 66.9798 77.251C67.9358 76.78 68.9708 76.394 69.2798 76.394C69.5888 76.394 69.8418 76.214 69.8418 75.994C69.8418 75.774 70.1908 75.594 70.6178 75.594C71.0448 75.594 71.5058 75.414 71.6418 75.194C71.9478 74.699 70.8748 74.67 69.9368 75.147C69.2608 75.491 67.9758 76.031 66.1418 76.743C65.6468 76.935 64.3418 77.498 63.2418 77.994C58.5438 80.111 57.8418 80.274 57.8418 79.245C57.8418 78.803 58.0218 78.33 58.2418 78.194C58.4618 78.058 58.6418 77.428 58.6418 76.794C58.6418 76.16 58.8218 75.53 59.0418 75.394C59.2618 75.258 59.4418 74.538 59.4418 73.794C59.4418 73.05 59.6218 72.33 59.8418 72.194C60.0618 72.058 60.2418 71.428 60.2418 70.794C60.2418 70.16 60.4218 69.53 60.6418 69.394C60.8618 69.258 61.0418 68.563 61.0418 67.85C61.0418 67.137 61.2068 66.383 61.4078 66.174C61.6098 65.965 61.8348 65.344 61.9078 64.794C62.0468 63.755 67.4828 63.089 68.0698 64.039C68.1898 64.234 69.3048 64.394 70.5458 64.394C72.1948 64.394 72.6828 64.275 72.3588 63.951C72.1158 63.708 70.9928 63.5 69.8638 63.488C68.7348 63.477 67.7168 63.316 67.6028 63.131C67.4878 62.945 66.5048 62.794 65.4178 62.794C64.3308 62.794 63.4428 62.659 63.4448 62.494C63.4478 62.175 68.2038 57.791 69.6078 56.813C70.0668 56.494 71.1618 55.551 72.0418 54.718C74.5038 52.386 74.9538 52.548 80.3208 57.702C82.8938 60.172 85.8638 63.004 86.9208 63.994L88.8418 65.794L86.9318 65.916C84.6658 66.061 84.7778 66.794 87.0658 66.794C87.9328 66.794 88.6408 66.929 88.6388 67.094C88.6348 67.453 86.6978 68.394 85.9618 68.394C85.6758 68.394 85.4418 68.574 85.4418 68.794C85.4418 69.301 86.3608 69.314 86.8618 68.814C87.0708 68.606 87.9878 68.316 88.8998 68.17L90.5588 67.905L90.7738 69.85C91.1928 73.631 91.7238 76.155 92.1298 76.29C92.3678 76.369 92.4578 77.155 92.3438 78.163C92.2358 79.121 92.3528 80.233 92.6038 80.646C93.1798 81.592 92.9448 76.91 92.2498 73.594C91.2008 68.584 91.4928 65.812 92.8418 67.994C92.9778 68.214 93.6078 68.394 94.2418 68.394C94.8758 68.394 95.5058 68.574 95.6418 68.794C95.7778 69.014 96.3178 69.194 96.8418 69.194C97.3658 69.194 97.9058 69.374 98.0418 69.594C98.1778 69.814 98.8078 69.994 99.4418 69.994C100.076 69.994 100.706 70.174 100.842 70.394C100.978 70.614 101.608 70.794 102.242 70.794C102.876 70.794 103.506 70.974 103.642 71.194C103.778 71.414 104.318 71.594 104.842 71.594C105.366 71.594 105.906 71.774 106.042 71.994C106.178 72.214 106.808 72.394 107.442 72.394C108.076 72.394 108.706 72.574 108.842 72.794C108.978 73.014 109.608 73.194 110.242 73.194C110.876 73.194 111.506 73.374 111.642 73.594C111.778 73.814 112.318 73.994 112.842 73.994C115.202 73.994 114.445 75.208 107.861 81.992C104.766 85.181 102.138 88.061 102.021 88.392C101.905 88.723 101.112 89.534 100.259 90.194C98.9648 91.196 97.8758 92.794 98.4858 92.794C98.7538 92.794 102.219 89.135 103.385 87.622C103.966 86.867 106.517 84.167 109.053 81.622C113.739 76.919 115.841 74.394 115.069 74.394C114.834 74.394 114.642 74.203 114.642 73.97C114.642 73.737 114.822 73.658 115.042 73.794C115.532 74.097 115.544 73.85 115.446 65.394C115.403 61.654 115.21 58.324 115.017 57.994C114.54 57.177 114.537 57.238 114.635 65.294C114.738 73.662 114.845 73.538 110.842 69.687C109.302 68.206 107.412 66.479 106.642 65.85C105.872 65.221 104.249 63.781 103.035 62.65C101.822 61.519 100.202 60.079 99.4348 59.449C98.6688 58.82 96.8708 57.2 95.4388 55.849C94.0078 54.499 92.2078 52.875 91.4388 52.24C84.8188 46.771 83.4908 45.055 85.3418 44.363C85.9468 44.136 87.3318 43.511 88.4208 42.973C89.5088 42.434 90.6338 41.994 90.9208 41.994C91.2068 41.994 91.4418 41.814 91.4418 41.594C91.4418 41.374 91.6778 41.194 91.9668 41.194C92.4888 41.194 94.6458 40.264 97.5798 38.775C98.4258 38.345 99.3708 37.994 99.6798 37.994C99.9888 37.994 100.242 37.814 100.242 37.594C100.242 37.374 100.495 37.194 100.804 37.194C101.113 37.194 102.103 36.834 103.004 36.394C103.905 35.954 105.379 35.234 106.28 34.794C107.181 34.354 108.171 33.994 108.48 33.994C108.789 33.994 109.042 33.814 109.042 33.594C109.042 33.374 109.366 33.194 109.762 33.194C110.158 33.194 110.653 33.029 110.862 32.827C112.391 31.352 112.836 32.074 113.042 36.362C113.163 38.889 113.417 40.588 113.685 40.676C114.298 40.879 113.908 31.096 113.289 30.729C112.872 30.482 112.471 30.149 109.836 27.866C109.283 27.386 108.174 26.502 107.371 25.9C106.568 25.298 105.671 24.578 105.377 24.3C105.083 24.022 104.183 23.302 103.377 22.7C102.571 22.098 101.671 21.378 101.377 21.1C101.083 20.822 100.183 20.102 99.3768 19.5C98.5708 18.898 97.6708 18.178 97.3768 17.9C97.0828 17.622 96.1828 16.902 95.3768 16.3C94.5708 15.698 93.6708 14.978 93.3768 14.7C93.0828 14.422 92.1828 13.702 91.3768 13.1C90.5708 12.498 89.6658 11.778 89.3668 11.5C89.0668 11.222 88.0168 10.366 87.0318 9.6C84.8438 7.895 85.0548 8.06301 79.5328 3.62101C77.0528 1.62601 74.9828 -0.00299586 74.9328 4.13701e-06C74.8828 0.00300414 74.6588 0.138007 74.4358 0.300007ZM77.2698 2.988C77.9858 3.535 78.8178 4.21 79.1168 4.488C79.4168 4.766 80.4668 5.622 81.4518 6.388C82.4358 7.155 83.5118 8.001 83.8418 8.268C87.5618 11.275 105.508 25.547 107.642 27.195C109.182 28.385 110.892 29.775 111.442 30.284L112.442 31.211L111.542 31.449C111.047 31.58 110.642 31.846 110.642 32.041C110.642 32.235 110.389 32.394 110.08 32.394C109.771 32.394 108.781 32.754 107.88 33.194C106.979 33.634 105.505 34.354 104.604 34.794C103.703 35.234 102.713 35.594 102.404 35.594C102.095 35.594 101.842 35.774 101.842 35.994C101.842 36.214 101.589 36.394 101.28 36.394C100.971 36.394 100.026 36.733 99.1798 37.147C98.3338 37.561 96.7418 38.302 95.6418 38.794C94.5418 39.286 92.9498 40.027 92.1038 40.441C91.2578 40.855 90.3128 41.194 90.0038 41.194C89.6948 41.194 89.4418 41.374 89.4418 41.594C89.4418 41.814 89.1768 41.994 88.8538 41.994C88.5308 41.994 87.6438 42.343 86.8838 42.77C86.1238 43.197 84.8758 43.664 84.1108 43.807L82.7198 44.068L82.4988 41.931C82.0938 38.017 81.7998 36.201 81.4398 35.394C81.2438 34.954 80.9898 33.784 80.8758 32.794C80.3998 28.679 80.1778 27.353 79.8398 26.594C79.6438 26.154 79.3798 24.894 79.2518 23.794C79.1248 22.694 78.9188 20.894 78.7938 19.794C78.6698 18.694 78.4048 17.623 78.2048 17.414C78.0048 17.205 77.8418 16.206 77.8418 15.194C77.8418 14.182 77.6788 13.183 77.4788 12.974C77.2788 12.765 77.0138 11.694 76.8898 10.594C76.3398 5.73001 76.1418 4.571 75.8028 4.214C75.3888 3.778 75.3098 1.99401 75.7038 1.99401C75.8478 1.99401 76.5528 2.441 77.2698 2.988ZM75.4358 6.81401C75.4388 7.59501 75.6048 8.405 75.8048 8.614C76.0048 8.823 76.2678 9.89401 76.3898 10.994C76.8388 15.052 77.0958 16.613 77.4438 17.394C77.6398 17.834 77.9038 19.094 78.0318 20.194C78.1588 21.294 78.3648 23.094 78.4898 24.194C78.6138 25.294 78.8788 26.365 79.0788 26.574C79.2788 26.783 79.4418 27.782 79.4418 28.794C79.4418 29.806 79.6048 30.805 79.8048 31.014C80.0048 31.223 80.2698 32.294 80.3938 33.394C80.9438 38.258 81.1418 39.417 81.4808 39.774C81.6788 39.983 81.8418 41.03 81.8418 42.101C81.8418 44.209 81.7378 44.25 79.1418 43.169C78.0218 42.702 76.5198 42.101 75.3418 41.648C74.8468 41.457 73.9468 41.097 73.3418 40.848C72.7368 40.598 71.8368 40.238 71.3418 40.048C70.8468 39.857 69.9468 39.497 69.3418 39.248C68.7368 38.998 67.7918 38.614 67.2418 38.394C66.6918 38.174 65.7468 37.79 65.1418 37.54C64.5368 37.291 63.6818 36.955 63.2418 36.794C57.1088 34.548 56.0378 33.624 57.4478 31.794C57.6178 31.574 58.1358 30.719 58.5988 29.894C60.5968 26.339 61.1698 25.305 61.9818 23.794C62.4548 22.914 62.9318 22.104 63.0418 21.994C63.2818 21.754 65.0388 18.559 65.6248 17.297C65.8548 16.804 66.1768 16.399 66.3418 16.397C66.5068 16.395 66.6418 16.034 66.6418 15.594C66.6418 15.154 66.8008 14.794 66.9948 14.794C67.1898 14.794 67.4488 14.479 67.5708 14.094C67.7908 13.398 69.0548 11.176 69.4468 10.794C69.5598 10.684 70.0998 9.69401 70.6468 8.59401C71.1938 7.49401 71.7768 6.534 71.9418 6.461C72.1068 6.387 72.2418 6.15801 72.2418 5.95201C72.2418 5.74601 72.7208 4.85201 73.3068 3.96701L74.3728 2.35701L74.9008 3.876C75.1918 4.711 75.4328 6.03301 75.4358 6.81401ZM70.6418 6.562C70.6418 6.654 70.0008 7.869 69.2178 9.262C68.4348 10.655 67.6938 12.109 67.5718 12.494C67.4488 12.879 67.1898 13.194 66.9948 13.194C66.8008 13.194 66.6418 13.366 66.6418 13.576C66.6418 13.787 66.0738 14.912 65.3798 16.076C64.0748 18.267 62.0538 21.924 61.2828 23.491C61.0408 23.984 60.7068 24.389 60.5418 24.391C60.3768 24.393 60.2418 24.754 60.2418 25.194C60.2418 25.634 60.0828 25.994 59.8888 25.994C59.6938 25.994 59.4348 26.309 59.3128 26.694C59.0758 27.441 57.7958 29.661 57.4098 29.994C57.2818 30.104 56.9228 30.779 56.6118 31.494C56.1138 32.64 54.6418 33.375 54.6418 32.478C54.6418 32.304 53.9218 31.366 53.0418 30.394C51.4988 28.69 51.1018 27.808 51.7488 27.527C51.9178 27.454 52.4728 26.854 52.9818 26.194C53.4908 25.534 54.5688 24.274 55.3778 23.394C56.1868 22.514 57.3618 21.164 57.9888 20.394C58.6168 19.624 59.8748 18.181 60.7858 17.186C61.6968 16.192 63.4318 14.214 64.6418 12.791C65.8518 11.369 67.5168 9.483 68.3418 8.601C69.1668 7.72 69.8418 6.862 69.8418 6.696C69.8418 6.53 70.0218 6.394 70.2418 6.394C70.4618 6.394 70.6418 6.47 70.6418 6.562ZM52.4868 31.094C53.3348 32.139 54.1658 33.054 54.3348 33.127C55.6888 33.716 53.7328 33.994 48.2418 33.994C41.0218 33.994 40.7678 33.854 44.5418 31.956C46.0268 31.209 47.3018 30.462 47.3748 30.296C47.4488 30.13 47.8428 29.994 48.2518 29.994C48.6598 29.994 49.1058 29.814 49.2418 29.594C49.7838 28.716 51.0218 29.289 52.4868 31.094ZM56.5448 35.025C56.1508 35.418 55.4418 34.814 55.4418 34.085C55.4418 33.474 55.4948 33.475 56.1178 34.099C56.4898 34.471 56.6818 34.887 56.5448 35.025ZM55.2838 35.494C55.4028 35.879 55.6668 36.507 55.8708 36.889C56.0748 37.271 56.2418 38.205 56.2418 38.965C56.2418 39.725 56.4218 40.458 56.6418 40.594C56.8618 40.73 57.0418 41.54 57.0418 42.394C57.0418 43.248 57.2218 44.058 57.4418 44.194C57.6618 44.33 57.8418 45.14 57.8418 45.994C57.8418 46.848 58.0218 47.658 58.2418 47.794C58.4618 47.93 58.6418 48.74 58.6418 49.594C58.6418 50.448 58.8218 51.258 59.0418 51.394C59.2618 51.53 59.4418 52.34 59.4418 53.194C59.4418 54.048 59.6218 54.858 59.8418 54.994C60.0618 55.13 60.2418 55.94 60.2418 56.794C60.2418 57.648 60.4218 58.458 60.6418 58.594C61.1038 58.88 61.1898 60.404 60.7418 60.375C60.5768 60.364 59.6318 59.362 58.6418 58.148C57.6518 56.934 56.5718 55.637 56.2418 55.267C55.9118 54.897 54.8338 53.604 53.8468 52.394C52.8608 51.184 51.9578 50.104 51.8418 49.994C51.7258 49.884 50.8238 48.804 49.8368 47.594C48.8498 46.384 47.4318 44.723 46.6858 43.903C45.9398 43.082 45.0498 42.002 44.7088 41.503C44.3678 41.003 43.9798 40.504 43.8478 40.394C43.1848 39.842 39.8418 35.472 39.8418 35.157C39.8418 34.384 55.0428 34.716 55.2838 35.494ZM61.0418 36.694C61.5918 36.91 62.5818 37.315 63.2418 37.594C63.9018 37.873 64.8468 38.257 65.3418 38.448C65.8368 38.638 66.6468 38.95 67.1418 39.14C68.6428 39.718 70.4018 40.467 71.1368 40.841C71.5188 41.035 72.1038 41.194 72.4368 41.194C72.7698 41.194 73.0418 41.374 73.0418 41.594C73.0418 41.814 73.3138 41.994 73.6468 41.994C73.9798 41.994 74.5648 42.153 74.9468 42.347C75.3288 42.542 76.1818 42.923 76.8418 43.194C77.5018 43.465 78.3548 43.846 78.7368 44.041C79.1188 44.235 79.6818 44.394 79.9878 44.394C81.3908 44.394 81.6828 45.678 80.4798 46.553C79.8428 47.015 78.4938 48.154 77.4818 49.083C74.6348 51.696 75.0538 51.904 66.3058 43.521C63.8108 41.13 60.9848 38.517 60.0248 37.715C58.3488 36.314 57.9418 35.237 59.3608 35.956C59.7348 36.145 60.4918 36.478 61.0418 36.694ZM39.4418 36.298C39.4418 36.466 40.0808 37.321 40.8608 38.198C41.6418 39.076 42.7668 40.424 43.3608 41.194C43.9558 41.964 45.0518 43.265 45.7978 44.085C46.5438 44.906 47.4378 45.986 47.7838 46.485C48.1298 46.985 49.0298 48.065 49.7838 48.885C50.5378 49.706 51.4338 50.786 51.7748 51.285C52.1158 51.785 52.5008 52.284 52.6288 52.394C52.7578 52.504 53.8478 53.764 55.0518 55.194C56.2568 56.624 57.3378 57.884 57.4558 57.994C60.1068 60.477 61.1038 62.794 59.5218 62.794C58.9058 62.794 58.2308 62.96 58.0218 63.162C57.0638 64.091 54.2368 63.8 53.3258 62.68L52.4418 61.593L43.2418 61.493L34.0418 61.394L34.1178 59.394C34.2238 56.567 34.6618 53.86 35.0828 53.414C35.2798 53.205 35.4418 52.271 35.4418 51.338C35.4418 50.405 35.6218 49.53 35.8418 49.394C36.0618 49.258 36.2418 48.358 36.2418 47.394C36.2418 46.43 36.4218 45.53 36.6418 45.394C36.8618 45.258 37.0418 44.448 37.0418 43.594C37.0418 42.74 37.2218 41.93 37.4418 41.794C37.6618 41.658 37.8418 41.015 37.8418 40.364C37.8418 38.939 38.7158 35.994 39.1388 35.994C39.3058 35.994 39.4418 36.131 39.4418 36.298ZM59.8898 38.694C61.5068 40.179 64.2728 42.763 66.0358 44.437C67.7988 46.111 70.3088 48.484 71.6128 49.711L73.9828 51.941L72.0558 53.667C70.9958 54.617 69.7488 55.656 69.2858 55.976C68.8218 56.295 67.5778 57.369 66.5218 58.361C62.9238 61.741 61.8418 62.118 61.8418 59.994C61.8418 59.36 61.6618 58.73 61.4418 58.594C61.2218 58.458 61.0418 57.648 61.0418 56.794C61.0418 55.94 60.8618 55.13 60.6418 54.994C60.4218 54.858 60.2418 54.073 60.2418 53.25C60.2418 52.427 60.0798 51.583 59.8828 51.374C59.6858 51.165 59.4258 50.274 59.3058 49.394C58.9278 46.623 58.5988 45.02 58.2398 44.194C58.0478 43.754 57.7838 42.674 57.6508 41.794C57.5188 40.914 57.3088 39.518 57.1838 38.691C57.0598 37.865 56.7968 37.089 56.5998 36.968C56.1378 36.683 56.1358 35.994 56.5958 35.994C56.7898 35.994 58.2728 37.209 59.8898 38.694ZM113.777 49.294C113.892 55.195 114.197 57.514 114.759 56.767C115.091 56.327 114.402 42.645 114.042 42.526C113.782 42.44 113.689 44.813 113.777 49.294ZM83.3648 45.224C83.2868 45.461 83.0508 45.654 82.8418 45.654C82.6328 45.654 82.3968 45.461 82.3188 45.224C82.2398 44.987 82.4748 44.794 82.8418 44.794C83.2088 44.794 83.4438 44.987 83.3648 45.224ZM82.9618 46.874C83.2258 47.138 83.4418 47.768 83.4418 48.274C83.4418 48.78 83.6218 49.194 83.8418 49.194C84.0618 49.194 84.2418 49.633 84.2418 50.17C84.2418 50.707 84.4218 51.258 84.6418 51.394C84.8618 51.53 85.0418 51.993 85.0418 52.423C85.0418 53.178 85.1858 53.568 86.1798 55.489C86.4338 55.981 86.6418 56.735 86.6418 57.165C86.6418 57.595 86.8218 58.058 87.0418 58.194C87.2618 58.33 87.4418 58.793 87.4418 59.223C87.4418 59.653 87.6008 60.317 87.7948 60.699C89.7338 64.511 89.3988 64.818 86.2418 62.122C82.6708 59.072 75.8418 52.413 75.8418 51.98C75.8418 51.592 78.4908 49.05 79.9328 48.054C80.4328 47.709 81.0798 47.194 81.3708 46.91C82.0268 46.269 82.3498 46.262 82.9618 46.874ZM87.3628 49.694C88.6128 50.849 89.9068 52.068 90.2388 52.402C90.5698 52.736 91.4718 53.526 92.2418 54.156C93.0118 54.786 95.1618 56.673 97.0198 58.348C98.8778 60.023 101.396 62.294 102.617 63.394C103.837 64.494 105.107 65.668 105.439 66.002C105.77 66.336 106.672 67.124 107.442 67.753C110.753 70.455 113.016 72.763 112.605 73.017C112.367 73.164 111.972 73.084 111.727 72.839C111.482 72.594 110.778 72.394 110.162 72.394C109.546 72.394 109.042 72.214 109.042 71.994C109.042 71.774 108.513 71.594 107.866 71.594C107.219 71.594 106.578 71.414 106.442 71.194C106.306 70.974 105.676 70.794 105.042 70.794C104.408 70.794 103.778 70.614 103.642 70.394C103.506 70.174 102.865 69.994 102.218 69.994C101.571 69.994 101.042 69.814 101.042 69.594C101.042 69.374 100.513 69.194 99.8658 69.194C99.2188 69.194 98.5778 69.014 98.4418 68.794C98.3058 68.574 97.6758 68.394 97.0418 68.394C96.4078 68.394 95.7778 68.214 95.6418 67.994C95.5058 67.774 94.8648 67.594 94.2178 67.594C93.5708 67.594 93.0418 67.414 93.0418 67.194C93.0418 66.974 92.5858 66.794 92.0288 66.794C91.4168 66.794 90.9278 66.517 90.7928 66.094C90.4998 65.178 89.8388 63.571 89.3948 62.699C89.2008 62.317 89.0418 61.653 89.0418 61.223C89.0418 60.793 88.8618 60.33 88.6418 60.194C88.4218 60.058 88.2418 59.595 88.2418 59.165C88.2418 58.735 88.0338 57.981 87.7798 57.489C86.8078 55.61 86.6418 55.187 86.6418 54.594C86.6418 54.258 86.4618 53.626 86.2418 53.189C86.0218 52.752 85.6618 52.036 85.4418 51.599C85.2218 51.162 85.0418 50.442 85.0418 49.999C85.0418 49.556 84.8618 49.194 84.6418 49.194C84.4218 49.194 84.2418 48.834 84.2418 48.394C84.2418 47.148 84.9078 47.426 87.3628 49.694ZM60.9758 64.74C61.0488 65.261 60.9138 65.882 60.6758 66.12C60.4368 66.359 60.2418 67.148 60.2418 67.874C60.2418 68.6 60.0618 69.194 59.8418 69.194C59.6218 69.194 59.4418 69.813 59.4418 70.57C59.4418 71.327 59.2618 72.058 59.0418 72.194C58.8218 72.33 58.6418 72.96 58.6418 73.594C58.6418 74.228 58.4618 74.858 58.2418 74.994C58.0218 75.13 57.8418 75.85 57.8418 76.594C57.8418 77.338 57.6618 78.058 57.4418 78.194C57.2218 78.33 57.0418 78.78 57.0418 79.194C57.0418 80.364 56.4188 80.48 54.8558 79.602C54.0648 79.157 53.1528 78.794 52.8298 78.794C52.5068 78.794 52.2418 78.614 52.2418 78.394C52.2418 78.174 51.9888 77.994 51.6798 77.994C51.3708 77.994 50.4258 77.643 49.5798 77.213C46.6458 75.724 44.4888 74.794 43.9668 74.794C43.6778 74.794 43.4418 74.614 43.4418 74.394C43.4418 74.174 43.0818 73.994 42.6418 73.994C42.2018 73.994 41.8418 73.832 41.8418 73.634C41.8418 73.436 44.1978 73.211 47.0778 73.134C53.5548 72.961 53.8418 72.753 53.8418 68.23C53.8418 64.923 54.1808 64.394 56.2978 64.394C57.1208 64.394 57.9118 64.204 58.0558 63.971C58.5788 63.125 60.8308 63.717 60.9758 64.74ZM74.0418 64.794C74.1778 65.014 75.2238 65.191 76.3658 65.188C77.8538 65.183 78.2718 65.072 77.8418 64.794C77.0358 64.273 73.7198 64.273 74.0418 64.794ZM79.6418 65.594C79.7778 65.814 80.8238 65.991 81.9658 65.988C83.4538 65.983 83.8718 65.872 83.4418 65.594C82.6358 65.073 79.3198 65.073 79.6418 65.594ZM90.6418 66.818C90.6418 67.025 90.2598 67.194 89.7928 67.194C89.0868 67.194 89.0268 67.094 89.4378 66.598C89.9378 65.996 90.6418 66.125 90.6418 66.818ZM83.4418 69.594C83.4418 69.814 83.7008 69.994 84.0178 69.994C84.3348 69.994 84.7058 69.814 84.8418 69.594C84.9778 69.374 84.7188 69.194 84.2658 69.194C83.8128 69.194 83.4418 69.374 83.4418 69.594ZM81.6418 70.394C81.5058 70.614 81.6648 70.794 81.9948 70.794C82.3248 70.794 82.7058 70.614 82.8418 70.394C82.9778 70.174 82.8188 69.994 82.4888 69.994C82.1588 69.994 81.7778 70.174 81.6418 70.394ZM79.6418 71.194C79.5058 71.414 79.0448 71.594 78.6178 71.594C78.1908 71.594 77.8418 71.774 77.8418 71.994C77.8418 72.214 78.1008 72.394 78.4178 72.394C78.7348 72.394 79.1058 72.214 79.2418 71.994C79.3778 71.774 79.8388 71.594 80.2658 71.594C80.6928 71.594 81.0418 71.414 81.0418 71.194C81.0418 70.974 80.7828 70.794 80.4658 70.794C80.1488 70.794 79.7778 70.974 79.6418 71.194ZM75.8418 72.794C75.8418 73.014 76.1008 73.194 76.4178 73.194C76.7348 73.194 77.1058 73.014 77.2418 72.794C77.3778 72.574 77.1188 72.394 76.6658 72.394C76.2128 72.394 75.8418 72.574 75.8418 72.794ZM39.7468 73.552C40.6038 73.994 45.4108 76.214 47.8418 77.291C48.8318 77.73 50.3338 78.427 51.1798 78.841C52.0258 79.255 52.9708 79.594 53.2798 79.594C53.5888 79.594 53.8418 79.774 53.8418 79.994C53.8418 80.214 54.1708 80.394 54.5718 80.394C56.4108 80.394 56.9818 81.879 57.1828 87.194C57.6398 99.24 57.9478 104.635 58.2128 105.194C58.6278 106.073 58.7818 117.194 58.3788 117.194C58.1908 117.194 57.7828 116.609 57.4718 115.894C57.1608 115.179 56.7928 114.504 56.6548 114.394C56.5168 114.284 55.9168 113.204 55.3208 111.994C54.1918 109.699 52.9848 107.537 52.6418 107.194C52.5318 107.084 51.9958 106.094 51.4518 104.994C50.9068 103.894 50.3668 102.904 50.2518 102.794C50.0378 102.59 47.6358 98.122 46.8668 96.497C46.6328 96.004 46.3068 95.599 46.1418 95.597C45.9768 95.595 45.8418 95.234 45.8418 94.794C45.8418 94.354 45.7068 93.993 45.5418 93.991C45.3768 93.989 45.0508 93.584 44.8168 93.091C44.0818 91.537 41.6508 87.003 41.4408 86.794C41.3308 86.684 40.9708 86.054 40.6418 85.394C40.3128 84.734 39.9448 84.104 39.8238 83.994C39.7028 83.884 39.1168 82.804 38.5208 81.594C37.3918 79.299 36.1848 77.137 35.8418 76.794C35.6048 76.557 34.2418 73.649 34.2418 73.38C34.2418 73.039 39.0418 73.188 39.7468 73.552ZM73.8418 73.594C73.8418 73.814 74.2018 73.994 74.6418 73.994C75.0818 73.994 75.4418 73.814 75.4418 73.594C75.4418 73.374 75.0818 73.194 74.6418 73.194C74.2018 73.194 73.8418 73.374 73.8418 73.594ZM72.2418 74.394C72.2418 74.614 72.5118 74.794 72.8418 74.794C73.1718 74.794 73.4418 74.614 73.4418 74.394C73.4418 74.174 73.1718 73.994 72.8418 73.994C72.5118 73.994 72.2418 74.174 72.2418 74.394ZM57.8418 81.418C57.8418 81.735 57.6618 81.994 57.4418 81.994C57.2218 81.994 57.0418 81.623 57.0418 81.17C57.0418 80.717 57.2218 80.458 57.4418 80.594C57.6618 80.73 57.8418 81.101 57.8418 81.418ZM93.0418 83.347C93.0418 84.117 93.2218 84.858 93.4418 84.994C93.6798 85.141 93.8418 84.673 93.8418 83.841C93.8418 83.071 93.6618 82.33 93.4418 82.194C93.2038 82.047 93.0418 82.515 93.0418 83.347ZM58.6418 83.494C58.6428 83.659 59.1128 84.334 59.6868 84.994C60.2618 85.654 61.2058 86.824 61.7868 87.594C62.3668 88.364 63.0218 89.199 63.2418 89.449C63.4618 89.699 64.6318 91.22 65.8418 92.828C67.0518 94.437 68.5828 96.303 69.2448 96.974C72.1098 99.88 72.9758 102.794 70.9738 102.794C70.7918 102.794 70.6418 103.019 70.6418 103.294C70.6408 103.569 70.2228 104.28 69.7128 104.873C69.2018 105.467 66.9968 108.658 64.8128 111.965C61.5038 116.974 60.1258 118.603 59.7948 117.894C59.7168 117.725 59.0878 106.128 58.8138 99.794C58.6718 96.494 58.4308 93.524 58.2788 93.194C57.7838 92.114 57.7118 83.194 58.1988 83.194C58.4428 83.194 58.6418 83.329 58.6418 83.494ZM70.4418 86.394C70.5778 86.614 70.9488 86.794 71.2658 86.794C71.5828 86.794 71.8418 86.614 71.8418 86.394C71.8418 86.174 71.4708 85.994 71.0178 85.994C70.5648 85.994 70.3058 86.174 70.4418 86.394ZM72.4418 87.194C72.5778 87.414 72.9488 87.594 73.2658 87.594C73.5828 87.594 73.8418 87.414 73.8418 87.194C73.8418 86.974 73.4708 86.794 73.0178 86.794C72.5648 86.794 72.3058 86.974 72.4418 87.194ZM93.8418 88.147C93.8418 88.917 94.0218 89.658 94.2418 89.794C94.4798 89.941 94.6418 89.473 94.6418 88.641C94.6418 87.871 94.4618 87.13 94.2418 86.994C94.0038 86.847 93.8418 87.315 93.8418 88.147ZM74.4418 87.994C74.5778 88.214 75.0488 88.394 75.4888 88.394C75.9288 88.394 76.1778 88.214 76.0418 87.994C75.9058 87.774 75.4348 87.594 74.9948 87.594C74.5548 87.594 74.3058 87.774 74.4418 87.994ZM76.6418 88.794C76.6418 89.014 77.0128 89.194 77.4658 89.194C77.9188 89.194 78.1778 89.014 78.0418 88.794C77.9058 88.574 77.5348 88.394 77.2178 88.394C76.9008 88.394 76.6418 88.574 76.6418 88.794ZM78.6448 89.494C78.6488 89.855 80.5868 90.794 81.3268 90.794C81.6158 90.794 82.1648 90.953 82.5468 91.147C82.9288 91.342 83.7368 91.702 84.3418 91.947C84.9468 92.193 85.8678 92.592 86.3888 92.833C86.9108 93.075 87.6758 93.202 88.0888 93.115C88.8228 92.961 87.9318 92.442 84.6418 91.107C84.0918 90.883 83.3288 90.542 82.9468 90.347C82.5648 90.153 81.8898 89.994 81.4468 89.994C81.0038 89.994 80.6418 89.814 80.6418 89.594C80.6418 89.374 80.1918 89.194 79.6418 89.194C79.0918 89.194 78.6428 89.329 78.6448 89.494ZM94.6478 92.694C94.6428 94.525 94.5398 94.794 93.8418 94.794C93.3088 94.794 93.0418 95.061 93.0418 95.594C93.0418 96.419 94.7548 96.782 95.2058 96.052C95.3228 95.864 94.9728 95.795 94.4298 95.898C93.1338 96.146 93.1448 95.355 94.4418 95.03C95.5218 94.759 95.8768 92.486 95.0418 91.194C94.7638 90.764 94.6528 91.191 94.6478 92.694ZM89.0418 93.594C89.0418 93.814 89.4018 93.994 89.8418 93.994C90.2818 93.994 90.6418 93.814 90.6418 93.594C90.6418 93.374 90.2818 93.194 89.8418 93.194C89.4018 93.194 89.0418 93.374 89.0418 93.594ZM96.5418 94.081C95.4928 95.394 95.6988 95.773 96.8418 94.63C97.3918 94.08 97.8418 93.532 97.8418 93.412C97.8418 92.926 97.2008 93.256 96.5418 94.081ZM91.2418 94.394C91.3778 94.614 91.7488 94.794 92.0658 94.794C92.3828 94.794 92.6418 94.614 92.6418 94.394C92.6418 94.174 92.2708 93.994 91.8178 93.994C91.3648 93.994 91.1058 94.174 91.2418 94.394ZM88.0418 96.89C86.9418 97.103 85.6818 97.426 85.2418 97.608C84.4548 97.934 82.7448 98.282 80.4988 98.572C79.0668 98.758 78.1218 99.573 79.2618 99.64C80.5968 99.719 81.6268 99.54 82.0218 99.159C82.2308 98.958 83.0748 98.794 83.8978 98.794C84.7208 98.794 85.5058 98.614 85.6418 98.394C85.7778 98.174 86.5878 97.994 87.4418 97.994C88.2958 97.994 89.1058 97.814 89.2418 97.594C89.3778 97.374 90.0078 97.194 90.6418 97.194C91.2758 97.194 91.9058 97.014 92.0418 96.794C92.3378 96.316 90.8308 96.352 88.0418 96.89ZM75.2418 99.994C75.0948 100.232 75.5708 100.394 76.4178 100.394C77.2008 100.394 77.8418 100.214 77.8418 99.994C77.8418 99.774 77.3128 99.594 76.6658 99.594C76.0188 99.594 75.3778 99.774 75.2418 99.994ZM81.5538 132.006C80.3468 132.486 80.1918 133.392 80.3258 139.161C80.4938 146.377 81.2418 145.832 81.2418 138.494V132.594H82.6328C84.0018 132.594 84.0448 132.646 85.4158 135.994C87.4718 141.014 87.5698 141.014 89.6028 135.976C90.9318 132.68 91.0008 132.594 92.3038 132.594H93.6418V138.494C93.6418 143.014 93.7618 144.395 94.1528 144.394C95.2398 144.394 94.6218 132.706 93.5048 132.15C91.5938 131.198 90.5798 131.965 89.2018 135.404C87.5978 139.405 87.4148 139.434 86.0568 135.905C84.5638 132.025 83.6008 131.191 81.5538 132.006ZM97.7418 132.019C95.2378 133.503 97.6258 134.853 102.5 134.708C106.691 134.584 107.765 134.031 106.797 132.494C106.279 131.67 98.9758 131.287 97.7418 132.019ZM110.932 132.062L109.821 132.468L109.932 138.326C110.034 143.748 110.099 144.195 110.814 144.332C111.536 144.471 111.543 144.438 110.914 143.809C110.072 142.967 109.91 133.686 110.722 132.874C111.318 132.278 117.179 132.225 118.264 132.806C121.292 134.427 120.894 142.426 117.716 143.809C116.485 144.344 116.477 144.363 117.472 144.378C120.211 144.42 121.843 137.624 119.966 133.994C118.912 131.955 114.065 130.919 110.932 132.062ZM134.042 132.045C132.846 132.638 128.015 144.394 128.968 144.394C129.155 144.394 129.314 144.169 129.321 143.894C129.384 141.431 133.89 132.394 135.055 132.394C136.182 132.394 141.071 142.976 140.426 144.02C140.299 144.226 140.385 144.394 140.618 144.394C141.332 144.394 141.12 143.584 138.993 138.194C136.586 132.096 135.831 131.158 134.042 132.045ZM123.442 132.299C123.442 132.496 123.847 132.643 124.342 132.626C125.431 132.587 126.009 143.387 124.954 144.057C124.58 144.294 124.634 144.383 125.152 144.388C125.807 144.394 125.854 143.914 125.752 138.294L125.642 132.194L124.542 132.067C123.937 131.998 123.442 132.102 123.442 132.299ZM106.442 133.194C106.442 133.683 105.647 133.815 102.142 133.908C98.0248 134.016 97.8418 133.986 97.8418 133.194C97.8418 132.402 98.0248 132.372 102.142 132.48C105.647 132.573 106.442 132.705 106.442 133.194ZM112.241 134.494C112.241 134.845 113.047 134.994 114.941 134.994H117.642L117.76 137.931C117.913 141.723 117.613 142.098 114.566 141.926C113.287 141.853 112.241 141.929 112.241 142.094C112.243 143 117.435 142.377 118.079 141.393C119.011 139.971 118.716 135.33 117.644 134.546C116.664 133.83 112.242 133.787 112.241 134.494ZM82.5658 139.776C82.4978 142.295 82.5688 144.229 82.7238 144.073C82.8788 143.917 83.0588 142.261 83.1238 140.392L83.2418 136.994L84.1348 138.994C85.8018 142.726 86.0028 142.988 87.2888 143.114C88.8028 143.264 89.3128 142.688 90.7208 139.238L91.7998 136.594L91.8208 139.861C91.8428 143.341 92.0628 144.394 92.7648 144.394C93.0568 144.394 93.0428 144.235 92.7218 143.914C92.4138 143.606 92.2418 142.03 92.2418 139.514C92.2418 134.764 91.9148 134.643 90.2488 138.776C87.9488 144.482 86.7518 144.267 84.2118 137.694C82.8888 134.271 82.7088 134.499 82.5658 139.776ZM133.812 137.064C132.895 139.204 133.008 139.877 134.318 140.063C134.983 140.157 135.233 140.446 135.21 141.094C135.193 141.589 135.328 141.994 135.51 141.994C135.693 141.994 135.842 141.739 135.842 141.427C135.842 140.334 135.35 139.594 134.623 139.594C133.553 139.594 133.453 139.173 134.126 137.494C134.96 135.413 135.041 135.489 136.846 140.065C137.728 142.301 138.691 144.21 138.986 144.309C139.398 144.446 139.381 144.269 138.912 143.541C138.577 143.02 137.64 140.929 136.83 138.894C135.142 134.651 134.907 134.508 133.812 137.064ZM97.8848 137.449C95.8928 138.844 97.5898 144.112 100.082 144.266C100.806 144.311 100.942 144.258 100.442 144.126C98.6208 143.644 97.8418 142.388 97.8418 139.932C97.8418 137.151 97.9438 137.099 103.042 137.276C107.202 137.42 108.131 138.517 104.242 138.694C100.259 138.874 99.4418 139.124 99.4418 140.163C99.4418 141.582 100.205 141.945 103.46 142.075C106.422 142.193 106.442 142.201 106.426 143.294C106.418 143.899 106.564 144.394 106.752 144.394C106.939 144.394 107.036 143.809 106.967 143.094L106.842 141.794L103.742 141.574C98.5528 141.206 98.3058 139.594 103.439 139.594C106.779 139.594 107.849 138.849 106.626 137.375C105.903 136.504 99.1528 136.561 97.8848 137.449ZM131.458 142.952C131.258 143.479 130.857 144.005 130.568 144.12C130.177 144.277 130.197 144.338 130.642 144.36C130.972 144.376 131.549 143.85 131.923 143.191C132.298 142.533 132.429 141.994 132.213 141.994C131.998 141.994 131.658 142.425 131.458 142.952Z" fill="#8C84A4"/>
</svg>
