<svg id="Layer_1" height="512" viewBox="0 0 512 512" width="512" xmlns="http://www.w3.org/2000/svg" data-name="Layer 1"><g fill-rule="evenodd"><path d="m256 16c-132.336 0-240 107.664-240 240s107.664 240 240 240 240-107.661 240-240-107.664-240-240-240z" fill="#0cb0ff"/><path d="m477.541 348.279q2.565-6.138 4.791-12.446l-186.832-208.826 1.679 1.937 1.587 2.018 1.488 2.093 1.391 2.166 1.286 2.235 1.181 2.3 1.07 2.364.957 2.423.841 2.479.72 2.531.6 2.58.47 2.626.341 2.669.206 2.707.07 2.742-.07 2.743-.206 2.707-.348 2.673-.47 2.625-.6 2.581-.72 2.53-.841 2.479-.957 2.423-1.067 2.362-1.181 2.3-1.286 2.236-1.391 2.164-1.489 2.093-1.586 2.017-1.679 1.938-1.769 1.855-1.855 1.769-1.937 1.678-2.018 1.588-2.093 1.488-2.165 1.39-2.236 1.287-2.3 1.181-2.364 1.07-2.423.957-2.479.84-2.532.721-2.579.6-2.626.47-2.669.34-2.708.207-2.742.069-2.742-.069-2.708-.207-2.668-.34-2.626-.47-2.581-.6-2.53-.721-2.479-.84-2.424-.957-2.363-1.07-2.3-1.181-2.235-1.287-2.167-1.39-2.093-1.49-2.017-1.586-1.938-1.678-1.855-1.769 147.779 148.677.069 2.724v8.1l-.032 1.253-.091 1.236-.156 1.219-.214 1.2-.274 1.18-.329 1.156-.384 1.133-.436 1.108-.49 1.08-.54 1.051-.587 1.022-.635.991-.682.956-.724.922-.768.886-.808.849-.847.807-.886.767-.922.726-.957.68-.99.636-1.021.588-1.052.54-1.081.489-1.107.438-1.133.384-1.157.329-1.179.273-1.2.216-1.22.155-1.237.094-1.254.032h-171.457l-1.253-.032-1.238-.1-1.22-.155-1.2-.215-1.179-.273-1.158-.33-1.132-.383-1.108-.438-1.081-.489-1.052-.54-1.021-.588-.991-.636-.957-.681-.92-.725 135.75 114.59q3.44-.5 6.848-1.087a239.026 239.026 0 0 0 106.925-47.839 242.079 242.079 0 0 0 24.387-22.077q1.889-1.958 3.731-3.958.6-.653 1.2-1.31l.01.009q3.3-3.633 6.447-7.409l.137-.164.074-.088.063-.076q5.553-6.656 10.628-13.709a239.928 239.928 0 0 0 26.578-47.518z" fill="#0092d8"/><path d="m256 109.5a53.379 53.379 0 1 1 -53.38 53.379 53.44 53.44 0 0 1 53.38-53.379zm110.124 250.6a24.425 24.425 0 0 1 -24.4 24.4h-171.451a24.425 24.425 0 0 1 -24.4-24.4v-8.1a110.123 110.123 0 1 1 220.246 0z" fill="#fff"/></g></svg>